# xmcd CD database file
#
# Track frame offsets:
#	150
#	7410
#	28034
#	50920
#	76114
#	98997
#	120248
#	140006
#	158935
#	171334
#	195126
#
# Disc length: 2689 seconds
#
# Revision: 0
# Processed by: cddbd v1.5PL3 Copyright (c) Steve Scherf et al.
# Submitted via: CDex 1.51
#
DISCID=8e0a7f0b
DTITLE=Blue line - Rainy monday
DYEAR=2000
DGENRE=Blues
TTITLE0=Rainy monday (part 1)
TTITLE1=Sixty six
TTITLE2=No connection
TTITLE3=Simple prayer
TTITLE4=Have you something to say
TTITLE5=On the road
TTITLE6=Don't know how
TTITLE7=Mister Fate
TTITLE8=Sing with me
TTITLE9=US Blues
TTITLE10=Rainy monday (part 2)
EXTD=YEAR: 2000
EXTT0=
EXTT1=
EXTT2=
EXTT3=
EXTT4=
EXTT5=
EXTT6=
EXTT7=
EXTT8=
EXTT9=
EXTT10=
PLAYORDER=
